<svg xmlns="http://www.w3.org/2000/svg" data-name="Layer 1" viewBox="0 0 100 100" x="0px" y="0px"><title>file format</title><path d="M37.15,68.45l3,5,3-5a.9.9,0,0,1,.84-.43h4.46q.5,0,.16.51l-5.86,8.79,6.07,8.9a.37.37,0,0,1,.07.37.31.31,0,0,1-.31.14H43.88a1,1,0,0,1-.89-.48l-2.88-5.1L37,86.25a1,1,0,0,1-.87.48H31.75c-.17,0-.27,0-.31-.14a.4.4,0,0,1,.07-.37l6.07-8.9-5.85-8.79a.4.4,0,0,1-.11-.34c0-.11.11-.17.27-.17h4.44A.9.9,0,0,1,37.15,68.45Zm22,18.28H52.39a.45.45,0,0,1-.51-.51V68.53a.45.45,0,0,1,.51-.51h6.79a9.54,9.54,0,0,1,3.72.73,9.12,9.12,0,0,1,3,2,9.23,9.23,0,0,1,2,3,9.37,9.37,0,0,1,.72,3.66,9.27,9.27,0,0,1-1.23,4.68A9.15,9.15,0,0,1,64,85.47,9.31,9.31,0,0,1,59.18,86.73ZM56.32,72.36v10H59A5.09,5.09,0,0,0,62.65,81a4.71,4.71,0,0,0,1.5-3.58,4.78,4.78,0,0,0-1.49-3.64A5.1,5.1,0,0,0,59,72.36ZM80.64,27.74H62.31A2.77,2.77,0,0,1,59.55,25V6.65a2.76,2.76,0,0,1,4.72-2L82.6,23a2.76,2.76,0,0,1-2,4.72ZM63.36,23.93H78.12L63.36,9.17Zm17,73.4H19.67a4.3,4.3,0,0,1-4.3-4.3V7a4.3,4.3,0,0,1,4.3-4.3H60.46a4.27,4.27,0,0,1,3,1.26L83.36,23.79a4.33,4.33,0,0,1,1.26,3V93A4.3,4.3,0,0,1,80.33,97.33ZM19.67,6.48a.49.49,0,0,0-.49.49V93a.49.49,0,0,0,.49.49H80.33a.49.49,0,0,0,.49-.49V26.83a.49.49,0,0,0-.14-.34L60.81,6.62a.48.48,0,0,0-.34-.14Z"/>
</svg>