<svg xmlns="http://www.w3.org/2000/svg" data-name="Layer 1" viewBox="0 0 100 100" x="0px" y="0px"><title>file format</title><path d="M42.07,70.52l-1.72,2.64a.6.6,0,0,1-.46.25.63.63,0,0,1-.33-.1A4.37,4.37,0,0,0,37,72.6a4.62,4.62,0,0,0-3.48,1.47,5.19,5.19,0,0,0,0,7.1A4.62,4.62,0,0,0,37,82.64a4.56,4.56,0,0,0,2.64-.77.51.51,0,0,1,.31-.1.44.44,0,0,1,.38.26l1.72,2.6c.19.31.15.55-.12.72A9.22,9.22,0,0,1,37,86.73a9.45,9.45,0,0,1-3.64-.7,8.58,8.58,0,0,1-2.89-1.91,8.8,8.8,0,0,1-1.88-2.9,9.76,9.76,0,0,1,0-7.19,8.55,8.55,0,0,1,4.77-4.83A9.3,9.3,0,0,1,37,68.49a9,9,0,0,1,4.85,1.34A.47.47,0,0,1,42.07,70.52Zm14.37.07-1.67,2.51a.41.41,0,0,1-.41.22.63.63,0,0,1-.33-.1,5.37,5.37,0,0,0-2.73-.71,2,2,0,0,0-1.16.31,1,1,0,0,0-.46.83.93.93,0,0,0,.26.64,2.36,2.36,0,0,0,.69.51,9.9,9.9,0,0,0,1,.44l1.19.48q.63.26,1.25.57a6.51,6.51,0,0,1,1.19.77,6,6,0,0,1,1,1A4.47,4.47,0,0,1,57,79.47a5.9,5.9,0,0,1,.26,1.8A5.38,5.38,0,0,1,57,82.74a5.22,5.22,0,0,1-.69,1.47,5.65,5.65,0,0,1-1.18,1.28,5.48,5.48,0,0,1-1.76.9,7.51,7.51,0,0,1-2.34.35,8.21,8.21,0,0,1-3-.53,11.42,11.42,0,0,1-2.7-1.53.48.48,0,0,1-.16-.67l1.66-2.5a.51.51,0,0,1,.4-.23.54.54,0,0,1,.33.12,7.33,7.33,0,0,0,1.75.95,5,5,0,0,0,1.78.38,2.2,2.2,0,0,0,1.42-.39,1.23,1.23,0,0,0,.47-1,1.17,1.17,0,0,0-.32-.8,2.62,2.62,0,0,0-.85-.61l-1.21-.53-1.38-.57a7.67,7.67,0,0,1-2.59-1.76,4.09,4.09,0,0,1-.85-1.43,5.58,5.58,0,0,1-.32-1.95,4.66,4.66,0,0,1,1.73-3.76,6.49,6.49,0,0,1,4.3-1.44,8.23,8.23,0,0,1,2.46.35,10.39,10.39,0,0,1,2.3,1.07A.46.46,0,0,1,56.45,70.59Zm14.84,0-1.67,2.51a.41.41,0,0,1-.41.22.63.63,0,0,1-.33-.1,5.37,5.37,0,0,0-2.73-.71,2,2,0,0,0-1.16.31,1,1,0,0,0-.46.83.93.93,0,0,0,.26.64,2.36,2.36,0,0,0,.69.51,9.9,9.9,0,0,0,1,.44l1.19.48q.63.26,1.25.57a6.51,6.51,0,0,1,1.19.77,6,6,0,0,1,1,1,4.47,4.47,0,0,1,.69,1.38,5.9,5.9,0,0,1,.26,1.8,5.38,5.38,0,0,1-.21,1.47,5.22,5.22,0,0,1-.69,1.47A5.65,5.65,0,0,1,70,85.48a5.48,5.48,0,0,1-1.76.9,7.51,7.51,0,0,1-2.34.35,8.21,8.21,0,0,1-3-.53,11.42,11.42,0,0,1-2.7-1.53A.48.48,0,0,1,60,84l1.66-2.5a.51.51,0,0,1,.4-.23.54.54,0,0,1,.33.12,7.33,7.33,0,0,0,1.75.95,5,5,0,0,0,1.78.38,2.2,2.2,0,0,0,1.42-.39,1.23,1.23,0,0,0,.47-1,1.17,1.17,0,0,0-.32-.8,2.62,2.62,0,0,0-.85-.61l-1.21-.53-1.38-.57a7.67,7.67,0,0,1-2.59-1.76,4.09,4.09,0,0,1-.85-1.43,5.61,5.61,0,0,1-.32-1.95A4.66,4.66,0,0,1,62,69.93a6.49,6.49,0,0,1,4.3-1.44,8.23,8.23,0,0,1,2.46.35,10.39,10.39,0,0,1,2.3,1.07A.46.46,0,0,1,71.29,70.59Zm9.35-42.85H62.31A2.77,2.77,0,0,1,59.55,25V6.65a2.76,2.76,0,0,1,4.72-2L82.6,23a2.76,2.76,0,0,1-2,4.72ZM63.36,23.93H78.12L63.36,9.17Zm17,73.4H19.67a4.3,4.3,0,0,1-4.3-4.3V7a4.3,4.3,0,0,1,4.3-4.3H60.46a4.27,4.27,0,0,1,3,1.26L83.36,23.79a4.33,4.33,0,0,1,1.26,3V93A4.3,4.3,0,0,1,80.33,97.33ZM19.67,6.48a.49.49,0,0,0-.49.49V93a.49.49,0,0,0,.49.49H80.33a.49.49,0,0,0,.49-.49V26.83a.49.49,0,0,0-.14-.34L60.81,6.62a.48.48,0,0,0-.34-.14Z"/>
</svg>