<svg xmlns="http://www.w3.org/2000/svg" data-name="Layer 1" viewBox="0 0 100 100" x="0px" y="0px"><title>file format</title><path d="M26.93,86.48H24.47a.32.32,0,0,1-.36-.36V73.48a.32.32,0,0,1,.36-.36h2.46c.23,0,.35.12.35.36v4.66h4.45V73.48a.32.32,0,0,1,.36-.36h2.46a.32.32,0,0,1,.36.36V86.12a.32.32,0,0,1-.36.36H32.08a.32.32,0,0,1-.36-.36V81.33H27.27v4.79C27.27,86.36,27.16,86.48,26.93,86.48Zm16.2,0H40.67c-.23,0-.35-.12-.35-.36V76.21H37.1q-.36,0-.36-.35V73.48a.32.32,0,0,1,.36-.36h9.62a.32.32,0,0,1,.36.36v2.39q0,.34-.36.35H43.49v9.91A.32.32,0,0,1,43.13,86.48ZM58,84.68H56.56a.5.5,0,0,1-.3-.07.6.6,0,0,1-.17-.26l-3-6.25v8c0,.24-.12.36-.35.36H50.3a.32.32,0,0,1-.36-.36V73.48a.32.32,0,0,1,.36-.36h3.28a.56.56,0,0,1,.55.35l3.13,6.59,3.13-6.59a.54.54,0,0,1,.53-.35h3.31q.34,0,.34.36V86.12q0,.36-.34.36H61.76q-.35,0-.35-.36v-8l-3,6.25a1,1,0,0,1-.21.26A.43.43,0,0,1,58,84.68Zm17.58,1.8H68.63a.32.32,0,0,1-.36-.36V73.48a.32.32,0,0,1,.36-.36h2.46c.23,0,.35.12.35.36v9.91h4.12a.3.3,0,0,1,.35.34v2.39Q75.9,86.48,75.55,86.48Zm5.09-58.74H62.31A2.77,2.77,0,0,1,59.55,25V6.65a2.76,2.76,0,0,1,4.72-2L82.6,23a2.76,2.76,0,0,1-2,4.72ZM63.36,23.93H78.12L63.36,9.17Zm17,73.4H19.67a4.3,4.3,0,0,1-4.3-4.3V7a4.3,4.3,0,0,1,4.3-4.3H60.46a4.27,4.27,0,0,1,3,1.26L83.36,23.79a4.33,4.33,0,0,1,1.26,3V93A4.3,4.3,0,0,1,80.33,97.33ZM19.67,6.48a.49.49,0,0,0-.49.49V93a.49.49,0,0,0,.49.49H80.33a.49.49,0,0,0,.49-.49V26.83a.49.49,0,0,0-.14-.34L60.81,6.62a.48.48,0,0,0-.34-.14Z"/>
</svg>