<svg xmlns="http://www.w3.org/2000/svg" data-name="Layer 1" viewBox="0 0 100 100" x="0px" y="0px"><title>file format</title><path d="M24.06,86.6H22.3a.23.23,0,0,1-.26-.26V77.27A.23.23,0,0,1,22.3,77h3.56a3.15,3.15,0,0,1,1.68.44,2.86,2.86,0,0,1,1.09,1.17A3.57,3.57,0,0,1,29,80.25a3.25,3.25,0,0,1-.23,1.21,3.46,3.46,0,0,1-.64,1,3,3,0,0,1-1,.73,3,3,0,0,1-1.26.28H24.31v2.83Q24.31,86.6,24.06,86.6Zm.25-7.53v2.37h1a1.56,1.56,0,0,0,1-.31,1.09,1.09,0,0,0,.36-.88,1.07,1.07,0,0,0-.36-.88,1.58,1.58,0,0,0-1-.3ZM32,77.17,33.78,80l1.72-2.85a.29.29,0,0,1,.27-.15h2a.11.11,0,0,1,.12.09.18.18,0,0,1,0,.17l-3,4.7v4.37q0,.26-.25.26H32.89q-.25,0-.25-.26V82l-3-4.7a.17.17,0,0,1,0-.17.12.12,0,0,1,.12-.09h2A.29.29,0,0,1,32,77.17ZM43.5,86.6H41.73q-.25,0-.25-.26V79.23H39.17q-.26,0-.26-.25V77.27a.23.23,0,0,1,.26-.26h6.9a.23.23,0,0,1,.26.26V79q0,.25-.26.25H43.76v7.11A.23.23,0,0,1,43.5,86.6Zm6.57,0H48.3a.23.23,0,0,1-.26-.26V77.27A.23.23,0,0,1,48.3,77h1.76q.25,0,.25.26v3.34H53.5V77.27a.23.23,0,0,1,.26-.26h1.77a.23.23,0,0,1,.26.26v9.07a.23.23,0,0,1-.26.26H53.76a.23.23,0,0,1-.26-.26V82.9H50.31v3.44Q50.31,86.6,50.06,86.6Zm12.48-9.72a5,5,0,0,1,1.94.38,4.91,4.91,0,0,1,0,9.09A5.12,5.12,0,0,1,60,86.09a4.69,4.69,0,0,1-1.77-1.77,5.17,5.17,0,0,1,0-5A4.74,4.74,0,0,1,60,77.53,4.9,4.9,0,0,1,62.54,76.88Zm-1.89,6.85a2.5,2.5,0,0,0,1.89.79,2.55,2.55,0,0,0,1.9-.79,2.76,2.76,0,0,0,0-3.83,2.55,2.55,0,0,0-1.9-.8,2.49,2.49,0,0,0-1.88.8,2.8,2.8,0,0,0,0,3.83Zm17,2.87H75.92a.51.51,0,0,1-.44-.26L71.61,81v5.38c0,.17-.08.26-.25.26H69.6a.23.23,0,0,1-.26-.26V77.27A.23.23,0,0,1,69.6,77h1.78a.51.51,0,0,1,.44.26l3.87,5.38V77.27q0-.26.25-.26H77.7a.23.23,0,0,1,.26.26v9.07A.23.23,0,0,1,77.7,86.6Zm2.94-58.86H62.31A2.77,2.77,0,0,1,59.55,25V6.65a2.76,2.76,0,0,1,4.72-2L82.6,23a2.76,2.76,0,0,1-2,4.72ZM63.36,23.93H78.12L63.36,9.17Zm17,73.4H19.67a4.3,4.3,0,0,1-4.3-4.3V7a4.3,4.3,0,0,1,4.3-4.3H60.46a4.27,4.27,0,0,1,3,1.26L83.36,23.79a4.33,4.33,0,0,1,1.26,3V93A4.3,4.3,0,0,1,80.33,97.33ZM19.67,6.48a.49.49,0,0,0-.49.49V93a.49.49,0,0,0,.49.49H80.33a.49.49,0,0,0,.49-.49V26.83a.49.49,0,0,0-.14-.34L60.81,6.62a.48.48,0,0,0-.34-.14Z"/>
</svg>