<svg xmlns="http://www.w3.org/2000/svg" data-name="Layer 1" viewBox="0 0 100 100" x="0px" y="0px"><title>file format</title><path d="M38.32,69.42,36.7,71.86a.4.4,0,0,1-.4.22A.61.61,0,0,1,36,72a5.24,5.24,0,0,0-2.67-.69,2,2,0,0,0-1.13.3.93.93,0,0,0-.45.81A.91.91,0,0,0,32,73a2.3,2.3,0,0,0,.68.5,9.65,9.65,0,0,0,1,.43l1.16.46q.61.25,1.22.56a6.35,6.35,0,0,1,1.16.75,5.85,5.85,0,0,1,1,1,4.36,4.36,0,0,1,.67,1.34,5.75,5.75,0,0,1,.25,1.75,5.25,5.25,0,0,1-.21,1.44,5.08,5.08,0,0,1-.68,1.43,5.51,5.51,0,0,1-1.15,1.25,5.34,5.34,0,0,1-1.71.88,7.32,7.32,0,0,1-2.28.34,8,8,0,0,1-2.93-.52,11.14,11.14,0,0,1-2.64-1.5.47.47,0,0,1-.16-.65L29,80a.5.5,0,0,1,.39-.23.53.53,0,0,1,.33.12,7.14,7.14,0,0,0,1.7.92,4.85,4.85,0,0,0,1.74.37,2.14,2.14,0,0,0,1.39-.38,1.19,1.19,0,0,0,.46-1,1.15,1.15,0,0,0-.31-.78,2.55,2.55,0,0,0-.83-.59L32.64,78l-1.35-.55a7.47,7.47,0,0,1-2.52-1.71,4,4,0,0,1-.83-1.39,5.44,5.44,0,0,1-.31-1.9,4.55,4.55,0,0,1,1.68-3.66,6.32,6.32,0,0,1,4.19-1.41,8,8,0,0,1,2.4.34,10.13,10.13,0,0,1,2.24,1A.45.45,0,0,1,38.32,69.42ZM55.13,88.66,53,84.81a10.27,10.27,0,0,1-2.38.34A8.9,8.9,0,0,1,46.08,84a8.46,8.46,0,0,1-3.2-3.2,9.33,9.33,0,0,1,0-9,8.54,8.54,0,0,1,3.2-3.21,8.83,8.83,0,0,1,4.51-1.18,8.94,8.94,0,0,1,3.5.69A8.86,8.86,0,0,1,56.52,82.9l2.15,3.81a.46.46,0,0,1-.12.62l-2.71,1.42a1,1,0,0,1-.37.13A.35.35,0,0,1,55.13,88.66Zm-4.55-7.5A4.61,4.61,0,0,0,54,79.72a5,5,0,0,0,0-6.91,4.59,4.59,0,0,0-3.43-1.44,4.5,4.5,0,0,0-3.4,1.44,5.06,5.06,0,0,0,0,6.92A4.51,4.51,0,0,0,50.59,81.15Zm21.7,3.75h-9a.42.42,0,0,1-.47-.47V68.08a.42.42,0,0,1,.47-.47H66.5c.3,0,.45.16.45.47V80.9h5.33a.4.4,0,0,1,.45.45v3.09Q72.73,84.91,72.28,84.91Zm8.36-57.17H62.31A2.77,2.77,0,0,1,59.55,25V6.65a2.76,2.76,0,0,1,4.72-2L82.6,23a2.76,2.76,0,0,1-2,4.72ZM63.36,23.93H78.12L63.36,9.17Zm17,73.4H19.67a4.3,4.3,0,0,1-4.3-4.3V7a4.3,4.3,0,0,1,4.3-4.3H60.46a4.27,4.27,0,0,1,3,1.26L83.36,23.79a4.33,4.33,0,0,1,1.26,3V93A4.3,4.3,0,0,1,80.33,97.33ZM19.67,6.48a.49.49,0,0,0-.49.49V93a.49.49,0,0,0,.49.49H80.33a.49.49,0,0,0,.49-.49V26.83a.49.49,0,0,0-.14-.34L60.81,6.62a.48.48,0,0,0-.34-.14Z"/>
</svg>