<svg xmlns="http://www.w3.org/2000/svg" x="0px" y="0px" viewBox="0 0 100 125"><path fill="#000000" d="M28.5564725 32.7231391L11.2796116 50l17.2768609 17.2768609c.8135922.8135922.8135922 2.132686 0 2.9462782-.8135923.8135923-2.132686.8135923-2.9462783 0l-18.75-18.75c-.81359227-.8135922-.81359227-2.132686 0-2.9462782l18.75-18.75c.8135923-.8135923 2.132686-.8135923 2.9462783 0 .8135922.8135922.8135922 2.132686 0 2.9462782zm42.887055 34.5537218L88.7203884 50 71.4435275 32.7231391c-.8135922-.8135922-.8135922-2.132686 0-2.9462782.8135923-.8135923 2.132686-.8135923 2.9462783 0l18.75 18.75c.8135923.8135922.8135923 2.132686 0 2.9462782l-18.75 18.75c-.8135923.8135923-2.132686.8135923-2.9462783 0-.8135922-.8135922-.8135922-2.132686 0-2.9462782zm-29.861516 18.7276523c-.3246587 1.1038394-1.4826852 1.7354903-2.5865247 1.4108316-1.1038394-.3246587-1.7354903-1.4826852-1.4108316-2.5865246l20.8333333-70.8333334c.3246587-1.1038394 1.4826852-1.7354903 2.5865247-1.4108316 1.1038394.3246587 1.7354903 1.4826852 1.4108316 2.5865246L41.5820115 86.0045132z"/>
</svg>