<svg xmlns="http://www.w3.org/2000/svg" xmlns:xlink="http://www.w3.org/1999/xlink" version="1.1" x="0px" y="0px" viewBox="0 0 128 128" style="enable-background:new 0 0 128 128;" xml:space="preserve"><g><path d="M117.2,72.3l-6.4-17.9c0.2-6.7-0.8-16.8-6.4-27c-2.1-3.8-6.4-11.6-15.1-16.8c-4.5-2.7-9.9-4.4-15.5-5l-0.4,4   c5,0.5,9.9,2,13.9,4.4c7.8,4.6,11.6,11.6,13.7,15.3c5.3,9.6,6.1,19,5.9,25.2l0,0.5l5.9,16.6l-5.2,0.8c-0.6,0.1-1.1,0.4-1.5,0.9   c-0.3,0.5-0.4,1.1-0.3,1.7c1.2,4.8,1.5,9.6,1.1,14.4c-0.4,4.6-0.7,7.2-2.4,9.1c-3.7,4.3-11.6,3-13.1,2.7c-0.6-0.1-1.3,0-1.8,0.4   c-0.5,0.4-0.8,1-0.8,1.6l-0.4,15.1H36.4c0.8-2.3,1.6-4.6,2.3-6.9c2.8-8.5,4.2-12.8,4.6-15.5c0.7-4.3-0.1-8.9-2.2-13.7l-3.6,1.6   c1.8,4.1,2.5,7.9,1.9,11.4c-0.4,2.4-1.7,6.5-4.5,14.9c-1,3.1-2,6.1-3.2,9.1c-0.3,0.7-0.2,1.4,0.2,2c0.4,0.6,1.1,0.9,1.8,0.9h56.3   c1.2,0,2.2-1,2.2-2.1l0.4-14.8c3.9,0.4,10.7,0.4,14.8-4.3c2.7-3,3-6.7,3.4-11.4c0.4-4.6,0.1-9.2-0.8-13.7l5.5-0.9   c0.6-0.1,1.2-0.5,1.5-1C117.4,73.6,117.4,72.9,117.2,72.3z"/><path d="M38.8,70.7v7.1h16v-7.1c2.4-0.7,4.7-1.6,6.9-2.9l5,5L78,61.6l-5-5c1.2-2.2,2.2-4.5,2.9-6.9H83v-16h-7.1   c-0.7-2.4-1.6-4.7-2.9-6.9l5-5L66.8,10.4l-5,5c-2.2-1.2-4.5-2.2-6.9-2.9V5.5h-16v7.1c-2.4,0.7-4.7,1.6-6.9,2.9l-5-5L15.6,21.7l5,5   c-1.2,2.2-2.2,4.5-2.9,6.9h-7.1v16l7.1,0c0.7,2.4,1.6,4.7,2.9,6.9l-5,5l11.3,11.3l5-5C34.1,69.1,36.4,70,38.8,70.7z M26.9,67.2   l-5.6-5.6l4.5-4.5l-0.9-1.4c-1.7-2.6-2.9-5.5-3.5-8.5l-0.3-1.6l-6.3,0v-8H21l0.3-1.6c0.7-3.1,1.9-5.9,3.5-8.5l0.9-1.4l-4.5-4.5   l5.6-5.6l4.5,4.5l1.4-0.9c2.6-1.7,5.5-2.9,8.5-3.5l1.6-0.3V9.5h8v6.3l1.6,0.3c3.1,0.7,5.9,1.9,8.5,3.5l1.4,0.9l4.5-4.5l5.6,5.6   l-4.5,4.5l0.9,1.4c1.7,2.6,2.9,5.5,3.5,8.5l0.3,1.6H79v8h-6.3l-0.3,1.6c-0.7,3.1-1.9,5.9-3.5,8.5l-0.9,1.4l4.5,4.4l-5.6,5.6   l-4.5-4.5l-1.4,0.9c-2.6,1.7-5.5,2.9-8.5,3.5l-1.6,0.3v6.3h-8v-6.3l-1.6-0.3c-3.1-0.7-5.9-1.9-8.5-3.5l-1.4-0.9L26.9,67.2z"/><path d="M46.9,59.9c10,0,18.2-8.2,18.2-18.2s-8.2-18.2-18.2-18.2s-18.2,8.2-18.2,18.2S36.8,59.9,46.9,59.9z M46.9,27.4   c7.8,0,14.2,6.4,14.2,14.2s-6.4,14.2-14.2,14.2s-14.2-6.4-14.2-14.2S39,27.4,46.9,27.4z"/></g>
</svg>