<svg xmlns="http://www.w3.org/2000/svg" viewBox="0 0 70 70" x="0px" y="0px"><g data-name="24-Creative">
<path d="M24,57a1,1,0,0,1-.707-.293l-4-4a1,1,0,0,1,0-1.414l30-30a1,1,0,0,1,1.414,0l4,4a1,1,0,0,1,0,1.414l-19,19-1.414-1.414L52.586,26,50,23.414,21.414,52,24,54.586l5.793-5.793,1.414,1.414-6.5,6.5A1,1,0,0,1,24,57Z"/>
<path d="M20,59a1,1,0,0,1-.707-.293l-2-2a1,1,0,0,1-.188-1.154l2-4,1.79.894L19.217,55.8l.98.98,3.356-1.678.894,1.79-4,2A1,1,0,0,1,20,59Z"/><path d="M53.707,27.707l-1.414-1.414L55.586,23,53,20.414l-2.293,2.293-1.414-1.414,3-3a1,1,0,0,1,1.414,0l4,4a1,1,0,0,1,0,1.414Z"/><rect x="48" y="24.172" width="2" height="5.657" transform="translate(-4.74 42.556) rotate(-45)"/>
<path d="M49,54H42a1,1,0,0,1-.707-.293L38.586,51H32.5a3.5,3.5,0,0,1,0-7h6.086l2.707-2.707A1,1,0,0,1,42,41h4.586l1.707-1.707,1.414,1.414-2,2A1,1,0,0,1,47,43H42.414l-2.707,2.707A1,1,0,0,1,39,46H32.5a1.5,1.5,0,0,0,0,3H39a1,1,0,0,1,.707.293L42.414,52h6.172l3.707-3.707A1,1,0,0,1,53,48h2v2H53.414l-3.707,3.707A1,1,0,0,1,49,54Z"/>
<path d="M63,53H55a1,1,0,0,1-1-1V32a1,1,0,0,1,1-1h8a1,1,0,0,1,1,1V52A1,1,0,0,1,63,53Zm-7-2h6V33H56Z"/><rect x="40" y="39.586" width="2" height="2.828" transform="translate(-16.983 41) rotate(-45)"/>
<path d="M26,47H24V40a1,1,0,0,1,.293-.707l13-13A1,1,0,0,1,38,26h7v2H38.414L26,40.414Z"/>
<path d="M55,35H52a1,1,0,0,1-.707-.293l-3-3,1.414-1.414L52.414,33H55Z"/><rect x="16.586" y="57" width="2.828" height="2" transform="translate(-35.74 29.716) rotate(-45)"/>
<path d="M55,64H9a1,1,0,0,1-1-1V11a1,1,0,0,1,.293-.707l10-10A1,1,0,0,1,19,0H55a1,1,0,0,1,1,1V17H54V2H19.414L10,11.414V62H54V55h2v8A1,1,0,0,1,55,64Z"/>
<path d="M19,12H9a1,1,0,0,1-.707-1.707l10-10A1,1,0,0,1,20,1V11A1,1,0,0,1,19,12Zm-7.586-2H18V3.414Z"/>
<path d="M32,23A10,10,0,1,1,42,13,10.011,10.011,0,0,1,32,23ZM32,5a8,8,0,1,0,8,8A8.009,8.009,0,0,0,32,5Z"/>
<path d="M35,27H29a1,1,0,0,1-1-1V21h2v4h4V21h2v5A1,1,0,0,1,35,27Z"/><rect x="31" y="26" width="2" height="3"/>
<path d="M33,22H31V13a1,1,0,0,1,1-1h3V11h2v2a1,1,0,0,1-1,1H33Z"/>
<path d="M32,14H28a1,1,0,0,1-1-1V11h2v1h3Z"/><rect x="13" y="31" width="2" height="2"/><rect x="17" y="31" width="12" height="2"/><rect x="13" y="35" width="12" height="2"/><rect x="13" y="39" width="9" height="2"/><rect x="13" y="43" width="9" height="2"/><rect x="26" y="58" width="26" height="2"/></g>
</svg>