<svg xmlns="http://www.w3.org/2000/svg" xmlns:xlink="http://www.w3.org/1999/xlink" viewBox="0 0 24 24" version="1.1" x="0px" y="0px"><title>action_032-responsive-design-computer-phone</title><desc>Created with Sketch.</desc><g stroke="none" stroke-width="1" fill="none" fill-rule="evenodd"><g transform="translate(-72.000000, -216.000000)" fill-rule="nonzero" fill="#000000"><g transform="translate(72.000000, 217.000000)">
<path d="M21,5 L21,1.5 C21,0.671572875 20.3284271,-1.66533454e-16 19.5,0 L1.5,0 C0.671572875,1.66533454e-16 -8.32667268e-17,0.671572875 0,1.5 L0,14.5 C1.66533454e-16,15.3284271 0.671572875,16 1.5,16 L15,16 L15,15 L1.5,15 C1.22385763,15 1,14.7761424 1,14.5 L1,1.5 C1,1.22385763 1.22385763,1 1.5,1 L19.5,1 C19.7761424,1 20,1.22385763 20,1.5 L20,5 L21,5 Z"/><polygon points="0.5 13 14.5 13 14.5 12 0.5 12"/>
<path d="M6.5,19 L14.5,19 C14.7761424,19 15,18.7761424 15,18.5 C15,18.2238576 14.7761424,18 14.5,18 L6.5,18 C6.22385763,18 6,18.2238576 6,18.5 C6,18.7761424 6.22385763,19 6.5,19 Z"/><polygon points="8.02565835 15.3418861 7.02565835 18.3418861 7.97434165 18.6581139 8.97434165 15.6581139"/><polygon points="12.0256584 15.6581139 13.0256584 18.6581139 13.9743416 18.3418861 12.9743416 15.3418861"/>
<path d="M15.5,5 C15.2238576,5 15,5.22385763 15,5.5 L15,20.5 C15,20.7761424 15.2238576,21 15.5,21 L22.5,21 C22.7761424,21 23,20.7761424 23,20.5 L23,5.5 C23,5.22385763 22.7761424,5 22.5,5 L15.5,5 Z M15.5,4 L22.5,4 C23.3284271,4 24,4.67157288 24,5.5 L24,20.5 C24,21.3284271 23.3284271,22 22.5,22 L15.5,22 C14.6715729,22 14,21.3284271 14,20.5 L14,5.5 C14,4.67157288 14.6715729,4 15.5,4 Z"/>
<path d="M15,18 L23,18 L23,7 L15,7 L15,18 Z M14.5,6 L23.5,6 C23.7761424,6 24,6.22385763 24,6.5 L24,18.5 C24,18.7761424 23.7761424,19 23.5,19 L14.5,19 C14.2238576,19 14,18.7761424 14,18.5 L14,6.5 C14,6.22385763 14.2238576,6 14.5,6 Z"/></g></g></g>
</svg>