<svg xmlns="http://www.w3.org/2000/svg" viewBox="0 0 24 24" x="0px" y="0px"><g><path d="M14,9.5A1.5,1.5,0,1,0,12.5,11,1.5,1.5,0,0,0,14,9.5Zm-1.5.5a.5.5,0,1,1,.5-.5A.5.5,0,0,1,12.5,10ZM17,13.91C18.43,5.44,12.81,2.1,12.75,2.07a.5.5,0,0,0-.5,0C12.19,2.1,6.57,5.44,8,13.91,6,14.41,5,16.5,5,18.5a.49.49,0,0,0,.19.39A.51.51,0,0,0,5.5,19a.25.25,0,0,0,.12,0l3.94-1H12v.5a.5.5,0,0,0,1,0V18h2.44l3.94,1a.25.25,0,0,0,.12,0,.51.51,0,0,0,.31-.11A.49.49,0,0,0,20,18.5C20,16.5,19.05,14.41,17,13.91ZM12.5,3.09A8.59,8.59,0,0,1,15,6H10A8.59,8.59,0,0,1,12.5,3.09ZM8.21,14.89c.16.71.38,1.47.64,2.26L6,17.85A3.23,3.23,0,0,1,8.21,14.89ZM12.5,14a.5.5,0,0,0-.5.5V17H9.85C8.2,12.25,8.66,8.92,9.65,6.69c0,.1-.09.2-.13.31h6l-.12-.3c1,2.23,1.44,5.56-.21,10.3H13V14.5A.5.5,0,0,0,12.5,14ZM10,6c0,.07-.07.14-.11.22C9.89,6.18,9.92,6.11,10,6Zm6.19,11.11c.26-.79.48-1.55.64-2.26a3.23,3.23,0,0,1,2.17,3ZM15,19.5a4,4,0,0,1-2.24,3.42h0l0,0a.51.51,0,0,1-.44,0l0,0h0A4,4,0,0,1,10,19.5a.5.5,0,0,1,1,0,3,3,0,0,0,1.5,2.41A3.05,3.05,0,0,0,14,19.5a.5.5,0,0,1,.5-.5h0A.5.5,0,0,1,15,19.5Z"/></g>
</svg>